<svg width="512" height="512" viewBox="0 0 512 512" xmlns="http://www.w3.org/2000/svg">
  <path d="M256 0C114.84 0 0 114.84 0 256c0 45.26 12.03 89.4 34.84 128.14L0 512l132.6-34.65C171.89 500.01 213.37 512 256 512c141.16 0 256-114.84 256-256S397.16 0 256 0z" fill="#25D366"/>
  <path d="M256 472c-39.6 0-78.35-10.5-112.2-30.4l-7.95-4.65-78.6 20.55L77 386.2l-5.1-8.35C52.9 343.1 43.5 300.2 43.5 256 43.5 142.6 142.6 43.5 256 43.5S468.5 142.6 468.5 256 369.4 468.5 256 468.5z" fill="#fff"/>
  <path d="M355.5 305.8c-5.4-2.7-32-15.8-37-17.6-5-1.8-8.6-2.7-12.3 2.7-3.6 5.4-14 17.6-17.2 21.2-3.2 3.6-6.3 4.1-11.7 1.4-5.4-2.7-22.8-8.4-43.4-26.8-16-14.3-26.8-32-29.9-37.4-3.2-5.4-.3-8.3 2.4-11 2.5-2.5 5.4-6.3 8.1-9.5 2.7-3.2 3.6-5.4 5.4-9 1.8-3.6.9-6.8-.45-9.5-1.4-2.7-12.3-29.6-16.9-40.5-4.5-10.8-9.1-9.1-12.3-9.1-3.2 0-6.8-.45-10.4-.45s-9.5 1.4-14.5 6.8c-5 5.4-19.1 18.7-19.1 45.6s19.6 52.9 22.3 56.6c2.7 3.6 38.5 58.8 93.5 82.4 55 23.6 66.2 15.9 78.3 14.9 12.1-1 32-13.1 36.5-25.6 4.5-12.5 4.5-23.2 3.2-25.6-1.3-2.4-4.9-3.9-10.3-6.6z" fill="#25D366"/>
</svg>
